<?xml version="1.0" standalone="no"?>
<!DOCTYPE svg PUBLIC "-//W3C//DTD SVG 20010904//EN"
 "http://www.w3.org/TR/2001/REC-SVG-20010904/DTD/svg10.dtd">
<svg version="1.0" xmlns="http://www.w3.org/2000/svg"
 viewBox="0 0 350 90" focusable="false" style="pointer-events: none; display: block; height: 25px">

<g transform="translate(0.000000,97.000000) scale(0.100000,-0.100000)"
fill="#000000" stroke="none">
<path d="M1070 930 c-47 -12 -67 -40 -76 -106 -7 -62 2 -177 16 -204 5 -10 45
-41 88 -68 86 -55 92 -64 92 -152 0 -65 -20 -100 -55 -100 -29 0 -34 15 -37
110 l-3 65 -50 0 -50 0 -3 -91 c-4 -124 10 -165 63 -182 26 -9 64 -12 109 -8
57 4 74 10 95 31 26 25 26 28 26 174 0 173 2 169 -106 232 -37 21 -69 46 -73
55 -3 8 -6 42 -6 74 0 48 4 61 19 70 42 22 71 -16 71 -91 l0 -39 50 0 50 0 0
74 c0 89 -13 130 -47 145 -34 16 -130 22 -173 11z"/>
<path d="M40 560 l0 -370 50 0 50 0 2 172 3 173 18 -70 c10 -38 32 -116 49
-173 l31 -102 55 0 c41 0 53 3 49 13 -19 49 -127 397 -127 408 0 8 25 79 55
159 30 80 55 149 55 153 0 4 -23 7 -52 5 l-51 -3 -43 -125 -42 -125 -1 128 -1
127 -50 0 -50 0 0 -370z"/>
<path d="M380 895 c0 -35 0 -35 45 -35 45 0 45 0 45 35 0 35 0 35 -45 35 -45
0 -45 0 -45 -35z"/>
<path d="M2540 560 l0 -370 45 0 45 0 1 258 1 257 33 -180 c64 -351 59 -330
82 -333 26 -4 24 -11 67 228 20 107 40 218 45 245 6 36 9 -23 10 -212 l1 -263
45 0 45 0 0 370 0 370 -74 0 -74 0 -5 -32 c-4 -18 -15 -109 -27 -203 -32 -265
-30 -265 -61 -20 -16 121 -28 228 -29 238 0 15 -10 17 -75 17 l-75 0 0 -370z"/>
<path d="M3020 895 c0 -34 1 -35 40 -35 39 0 40 1 40 35 0 34 -1 35 -40 35
-39 0 -40 -1 -40 -35z"/>
<path d="M387 743 c-4 -3 -7 -129 -7 -280 l0 -273 45 0 45 0 0 280 0 280 -38
0 c-21 0 -42 -3 -45 -7z"/>
<path d="M527 743 c-4 -3 -7 -129 -7 -280 l0 -273 45 0 45 0 2 216 c3 194 5
218 21 228 12 8 22 8 35 0 15 -10 17 -34 20 -228 l2 -216 45 0 45 0 2 223 3
222 24 3 c47 7 51 -14 51 -240 l0 -208 40 0 40 0 0 245 c0 267 -5 297 -54 309
-27 7 -72 -7 -97 -30 -15 -14 -20 -12 -43 11 -30 30 -59 29 -108 -6 l-28 -20
0 25 c0 23 -4 26 -38 26 -21 0 -42 -3 -45 -7z"/>
<path d="M1384 739 c-39 -20 -44 -50 -44 -274 0 -212 0 -214 24 -242 23 -26
29 -28 100 -28 98 0 118 17 124 105 l4 60 -46 0 c-42 0 -46 -2 -46 -24 0 -39
-11 -56 -34 -56 -36 0 -46 20 -46 92 l0 68 86 0 86 0 -4 130 c-3 119 -5 131
-25 152 -19 18 -36 23 -90 25 -38 2 -78 -2 -89 -8z m100 -75 c12 -5 16 -21 16
-70 l0 -64 -40 0 -40 0 0 54 c0 69 22 96 64 80z"/>
<path d="M1674 739 c-39 -20 -44 -50 -44 -274 0 -212 0 -214 24 -242 23 -26
29 -28 100 -28 65 0 79 3 98 23 23 22 23 27 23 252 0 224 0 230 -22 252 -19
18 -36 23 -90 25 -38 2 -78 -2 -89 -8z m104 -77 c9 -7 12 -52 10 -193 -3 -184
-3 -184 -26 -187 -48 -7 -52 8 -52 189 0 139 3 170 16 183 17 18 32 20 52 8z"/>
<path d="M1927 743 c-4 -3 -7 -129 -7 -280 l0 -273 45 0 45 0 2 216 c3 194 5
218 21 228 12 8 22 8 35 0 15 -10 17 -34 20 -228 l2 -216 45 0 45 0 0 223 c0
122 -5 240 -10 262 -17 74 -66 91 -132 44 l-28 -20 0 25 c0 23 -4 26 -38 26
-21 0 -42 -3 -45 -7z"/>
<path d="M2295 741 c-11 -5 -29 -19 -40 -31 -18 -20 -20 -38 -23 -239 -2 -202
-1 -218 18 -248 17 -28 25 -33 60 -33 27 0 47 7 60 20 26 26 30 25 30 -6 0
-54 -15 -64 -90 -64 l-70 0 0 -46 0 -47 83 5 c89 5 126 20 145 64 8 17 12 119
12 324 l0 300 -40 0 c-36 0 -40 -2 -40 -26 l0 -26 -29 31 c-30 32 -42 35 -76
22z m89 -113 c13 -18 16 -52 16 -165 0 -149 -7 -173 -49 -173 -36 0 -41 20
-41 176 0 125 3 155 16 168 21 22 40 20 58 -6z"/>
<path d="M3020 470 l0 -280 40 0 40 0 0 280 0 280 -40 0 -40 0 0 -280z"/>
<path d="M3160 470 l0 -280 40 0 40 0 0 199 c0 110 4 211 10 225 13 36 57 36
70 0 6 -14 10 -115 10 -225 l0 -199 40 0 40 0 0 239 c0 132 -4 251 -10 265
-12 33 -53 59 -80 51 -11 -3 -34 -18 -50 -32 l-30 -25 0 31 c0 29 -2 31 -40
31 l-40 0 0 -280z"/>
</g>
</svg>
